<?xml version="1.0" standalone="no"?>
<!DOCTYPE svg PUBLIC "-//W3C//DTD SVG 20010904//EN"
 "http://www.w3.org/TR/2001/REC-SVG-20010904/DTD/svg10.dtd">
<svg version="1.0" xmlns="http://www.w3.org/2000/svg"
 width="605.000000pt" height="605.000000pt" viewBox="0 0 605.000000 605.000000"
 preserveAspectRatio="xMidYMid meet">
<metadata>
Created by potrace 1.14, written by Peter Selinger 2001-2017
</metadata>
<g transform="translate(0.000000,605.000000) scale(0.100000,-0.100000)"
fill="#000000" stroke="none">
<path d="M4031 5800 c-7 -5 -119 -166 -203 -292 -37 -56 -40 -58 -75 -52 -20
3 -46 10 -59 14 -12 5 -24 6 -27 3 -3 -3 -12 -1 -19 3 -7 4 -19 9 -28 10 -56
7 -109 15 -130 19 -14 3 -50 7 -80 10 -30 2 -86 7 -125 11 -87 8 -414 8 -515
0 -94 -8 -165 -15 -210 -21 -19 -3 -51 -7 -70 -9 -74 -10 -254 -51 -345 -78
-38 -11 -74 -21 -80 -23 -11 -2 -25 -7 -115 -42 -36 -14 -69 -26 -75 -28 -5
-1 -27 -9 -47 -18 -359 -159 -671 -395 -925 -700 -42 -50 -121 -162 -170 -242
-44 -70 -136 -241 -138 -255 -1 -3 -9 -22 -18 -43 -9 -20 -16 -38 -16 -40 0
-1 -14 -35 -30 -74 -16 -40 -28 -73 -26 -73 2 0 -3 -19 -11 -42 -18 -51 -51
-179 -59 -228 -3 -19 -7 -46 -10 -60 -32 -171 -39 -258 -39 -510 0 -204 5
-310 19 -380 2 -14 7 -46 9 -71 3 -26 16 -98 30 -160 75 -334 203 -615 397
-874 85 -112 99 -129 210 -241 l91 -92 -128 -188 c-71 -104 -132 -190 -136
-192 -4 -2 -8 -10 -8 -18 0 -8 -4 -14 -10 -14 -5 0 -10 -4 -10 -9 0 -12 -111
-175 -122 -179 -4 -2 -8 -10 -8 -18 0 -8 -4 -14 -10 -14 -5 0 -10 -7 -10 -15
0 -8 -3 -15 -8 -15 -4 0 -12 -9 -17 -20 -12 -23 -126 -193 -134 -200 -4 -3
-14 -17 -23 -31 -17 -26 -16 -27 5 -31 19 -3 1473 -2 1502 1 6 1 30 32 55 69
25 37 47 69 50 72 3 3 35 51 72 107 71 107 75 110 137 87 8 -2 30 -7 50 -10
20 -2 47 -7 61 -11 14 -3 34 -7 45 -9 11 -1 40 -5 65 -9 233 -33 674 -39 860
-10 48 7 135 19 155 20 11 1 34 5 50 8 17 4 46 9 65 12 19 3 43 8 52 11 9 3
25 6 35 8 170 33 472 147 656 248 82 46 294 181 307 197 3 3 28 24 55 46 104
82 267 242 333 325 20 25 41 50 47 55 16 15 137 191 175 255 41 69 99 186 135
270 45 106 48 114 51 128 1 8 6 21 10 30 4 9 8 22 10 27 1 6 12 44 24 85 11
41 23 86 26 100 3 14 7 33 10 42 9 29 21 94 28 153 3 22 8 51 11 65 18 91 26
515 12 655 -12 120 -17 159 -22 185 -2 14 -6 41 -9 60 -3 19 -8 46 -11 60 -3
14 -8 34 -10 45 -11 49 -14 62 -24 93 -5 17 -8 32 -6 32 2 0 -3 16 -11 35 -8
19 -14 37 -13 40 1 6 -2 14 -42 120 -86 231 -234 484 -377 647 -15 17 -31 36
-37 43 -5 6 -50 52 -99 102 l-88 91 53 78 c29 44 55 81 58 84 4 3 35 50 71
104 36 55 69 104 75 110 5 6 41 58 80 116 38 58 73 107 77 108 4 2 8 9 8 15 0
7 9 23 20 37 11 14 61 85 110 158 67 99 85 132 72 133 -68 4 -1505 3 -1511 -1z
m-841 -1786 c14 -3 40 -8 59 -10 94 -12 312 -106 367 -158 6 -6 22 -18 34 -26
67 -45 186 -187 243 -290 25 -45 88 -215 85 -228 -1 -4 1 -20 5 -37 27 -123
28 -315 2 -448 -20 -103 -83 -273 -111 -302 -8 -7 -14 -17 -14 -21 0 -14 -79
-112 -137 -169 -184 -181 -416 -271 -698 -268 -96 1 -181 8 -212 17 -10 3 -29
7 -43 10 -125 21 -275 97 -391 197 -50 44 -141 148 -177 204 -17 27 -84 166
-86 179 -1 6 -4 16 -8 21 -6 10 -21 73 -18 77 1 2 -4 16 -10 32 -19 51 -35
352 -18 362 4 3 5 12 3 22 -2 10 1 40 7 68 6 27 11 56 12 64 6 34 36 124 47
136 6 8 9 14 5 14 -6 0 25 62 65 130 40 67 134 173 199 225 56 45 155 109 170
110 3 1 19 8 35 17 51 27 175 60 270 73 90 11 268 11 315 -1z"/>
</g>
</svg>
